<svg width="15" height="14" viewBox="0 0 15 14" fill="none" xmlns="http://www.w3.org/2000/svg">
	<path d="M7.2558 0C5.39948 0 3.619 0.737504 2.30572 2.04992C0.993222 3.36304 0.255798 5.14368 0.255798 7C0.255798 8.85632 0.993302 10.6368 2.30572 11.9501C3.61884 13.2626 5.39948 14 7.2558 14C9.11212 14 10.8926 13.2625 12.2059 11.9501C13.5184 10.637 14.2558 8.85632 14.2558 7C14.2539 5.14432 13.5158 3.36496 12.2033 2.05248C10.8908 0.74 9.11148 0.00192 7.2558 0ZM7.2558 13C5.66455 13 4.13836 12.3681 3.01324 11.2426C1.88761 10.1176 1.2558 8.59136 1.2558 7C1.2558 5.40864 1.88767 3.88256 3.01324 2.75744C4.13823 1.63181 5.66444 1 7.2558 1C8.84716 1 10.3732 1.63187 11.4984 2.75744C12.624 3.88243 13.2558 5.40864 13.2558 7C13.2539 8.59062 12.6214 10.1157 11.4964 11.2406C10.3714 12.3656 8.84652 12.9981 7.2558 13V13Z" fill="#4B4B4B" />
	<path d="M7.75599 6.79336V2.50024C7.75599 2.22399 7.53225 2.00024 7.25599 2.00024C6.97973 2.00024 6.75599 2.22399 6.75599 2.50024V7.00024C6.75661 7.06587 6.76911 7.13087 6.79474 7.19149C6.81974 7.25212 6.85661 7.30774 6.90286 7.35399L9.40286 9.85399C9.59912 10.044 9.91099 10.0409 10.1041 9.84836C10.2966 9.65524 10.2997 9.34337 10.1097 9.14712L7.75599 6.79336Z" fill="#4B4B4B" />
</svg>
