<svg width="15" height="11" viewBox="0 0 15 11" fill="none" xmlns="http://www.w3.org/2000/svg">
	<path d="M12.8558 0H1.6558C0.882879 0 0.255798 0.62708 0.255798 1.4V8.86666C0.255798 9.63958 0.882879 10.2667 1.6558 10.2667H12.8558C13.6287 10.2667 14.2558 9.63958 14.2558 8.86666V1.4C14.2558 0.62708 13.6287 0 12.8558 0ZM7.58717 6.01067C7.49967 6.09875 7.38009 6.14892 7.25583 6.14892C7.13157 6.14892 7.012 6.09875 6.92449 6.01067L1.84715 0.933333H12.6646L7.58717 6.01067ZM4.73117 5.13333L1.18913 8.67537V1.5913L4.73117 5.13333ZM5.38916 5.79132L6.26649 6.66866C6.81308 7.21465 7.69857 7.21465 8.24516 6.66866L9.12249 5.79132L12.6645 9.33336H1.84712L5.38916 5.79132ZM9.78046 5.13333L13.3225 1.5913V8.67537L9.78046 5.13333Z" fill="#4B4B4B" />
</svg>
