<svg width="15" height="16" viewBox="0 0 15 16" fill="none" xmlns="http://www.w3.org/2000/svg">
	<path d="M8.05747 0.699847L4.27008 6.04023L3.61236 3.45827C3.45697 2.86585 2.90241 2.44145 2.28896 2.47304C1.58401 2.50197 1.03578 3.0776 1.03664 3.77827L0.99544 11.6667C0.998818 11.7936 1.05527 11.9114 1.15876 11.9848C1.22086 12.0288 1.29764 12.0522 1.3714 12.0578C1.58971 12.0571 1.75286 11.8928 1.75213 11.6745L1.79333 3.78603C1.79825 3.49397 2.03048 3.25424 2.31954 3.24146C2.57321 3.2347 2.81126 3.40352 2.88143 3.65551L4.15644 8.63526C4.21024 8.84453 4.42157 8.96329 4.61314 8.91249C4.82241 8.85869 4.94117 8.64736 4.89037 8.45579L4.51674 7.00861L8.67853 1.14031C8.87671 0.860865 9.27323 0.784317 9.56301 0.989828C9.85279 1.19534 9.919 1.58452 9.71349 1.8743L6.85087 5.91072C6.72609 6.08666 6.7652 6.31664 6.94116 6.44143C7.11711 6.56621 7.34707 6.52709 7.47186 6.35113L11.1418 1.17634C11.3473 0.886551 11.7365 0.820348 12.0263 1.02586C12.3161 1.23137 12.3823 1.62055 12.1768 1.91033L8.21313 7.49924C8.08835 7.67519 8.12746 7.90516 8.30342 8.02995C8.47937 8.15473 8.70933 8.11561 8.83412 7.93965L11.9903 3.48924C12.1959 3.19945 12.585 3.13325 12.8645 3.33142C13.1543 3.53694 13.2235 3.94381 13.018 4.2336L9.42872 9.2946C9.30394 9.47054 9.34306 9.70051 9.51901 9.8253C9.69497 9.95009 9.92493 9.91096 10.0497 9.735L12.2591 6.61969C12.4573 6.34025 12.8465 6.27404 13.1259 6.47222L13.1466 6.4869C13.2811 6.58232 13.3686 6.72214 13.4061 6.8887C13.4331 7.04791 13.3895 7.21917 13.2941 7.35371L10.2039 11.711C8.69182 13.8431 6.4021 14.988 6.37709 15.0013C6.18419 15.0978 6.10383 15.3208 6.20035 15.5137C6.23742 15.5711 6.27449 15.6285 6.3159 15.6579C6.42974 15.7386 6.57728 15.7499 6.70242 15.6831C6.80254 15.6297 9.18807 14.4593 10.8176 12.1617L13.9151 7.79406C14.1279 7.49392 14.2123 7.13373 14.1491 6.76225C14.0859 6.39077 13.8872 6.07874 13.587 5.86588L13.5663 5.8512C13.3904 5.72643 13.1851 5.64305 12.9711 5.61574L13.6391 4.67392C14.0868 4.04259 13.9363 3.1581 13.305 2.71035C13.1187 2.57824 12.9134 2.49485 12.7098 2.47489L12.7978 2.3507C13.2456 1.71937 13.0981 0.852562 12.4668 0.404815C11.8354 -0.0429321 10.9686 0.104543 10.5209 0.735885L10.4328 0.860082C10.3363 0.667182 10.1897 0.501005 10.0034 0.36889C9.37209 -0.078848 8.50528 0.0686176 8.05753 0.69996L8.05747 0.699847Z" fill="white" />
</svg>
